<?xml version="1.0" encoding="UTF-8"?>
<!DOCTYPE svg PUBLIC "-//W3C//DTD SVG 1.1//EN" "http://www.w3.org/Graphics/SVG/1.1/DTD/svg11.dtd">
<svg xmlns="http://www.w3.org/2000/svg" version="1.1" width="469px" height="822px" style="shape-rendering:geometricPrecision; text-rendering:geometricPrecision; image-rendering:optimizeQuality; fill-rule:evenodd; clip-rule:evenodd" xmlns:xlink="http://www.w3.org/1999/xlink">
<g><path style="opacity:1" fill="#2c1d27" d="M 468.5,21.5 C 468.5,279.833 468.5,538.167 468.5,796.5C 466.473,798.18 464.139,799.347 461.5,800C 312.167,800.667 162.833,800.667 13.5,800C 6.31845,797.983 1.65179,793.483 -0.5,786.5C -0.5,534.833 -0.5,283.167 -0.5,31.5C 1.65179,24.5166 6.31845,20.0166 13.5,18C 162.833,17.3333 312.167,17.3333 461.5,18C 464.139,18.6529 466.473,19.8196 468.5,21.5 Z"/></g>
<g><path style="opacity:1" fill="#ceb69a" d="M 29.5,51.5 C 37.5387,49.6784 42.5387,52.6784 44.5,60.5C 41.2509,64.7111 39.0843,64.0444 38,58.5C 34.1972,55.4254 31.3638,56.0921 29.5,60.5C 29.7189,61.938 30.2189,63.2713 31,64.5C 34.9658,67.464 38.6325,70.7974 42,74.5C 46.9983,80.8312 46.4983,86.6645 40.5,92C 30.3396,95.0162 25.0062,91.1828 24.5,80.5C 26.2259,80.1854 27.8925,80.0187 29.5,80C 30.2272,82.124 30.8938,84.2906 31.5,86.5C 35.8529,89.4939 38.5195,88.3273 39.5,83C 39.3333,82.1667 39.1667,81.3333 39,80.5C 33.9664,75.8012 29.2998,70.8012 25,65.5C 23.3106,59.6547 24.8106,54.988 29.5,51.5 Z"/></g>
<g><path style="opacity:1" fill="#d5bc9f" d="M 197.5,51.5 C 197.334,56.5111 197.501,61.5111 198,66.5C 198.717,65.9558 199.217,65.2891 199.5,64.5C 202.906,62.9162 206.072,63.2495 209,65.5C 209.5,74.4938 209.666,83.4938 209.5,92.5C 207.5,92.5 205.5,92.5 203.5,92.5C 203.666,84.4931 203.5,76.4931 203,68.5C 201.221,67.5209 199.555,67.8542 198,69.5C 197.5,77.1594 197.334,84.8261 197.5,92.5C 195.833,92.5 194.167,92.5 192.5,92.5C 192.5,78.8333 192.5,65.1667 192.5,51.5C 194.167,51.5 195.833,51.5 197.5,51.5 Z"/></g>
<g><path style="opacity:1" fill="#6f5f54" d="M 197.5,51.5 C 198.167,55.8333 198.833,60.1667 199.5,64.5C 199.217,65.2891 198.717,65.9558 198,66.5C 197.501,61.5111 197.334,56.5111 197.5,51.5 Z"/></g>
<g><path style="opacity:1" fill="#d0b89c" d="M 253.5,53.5 C 255.6,63.1624 257.766,72.8291 260,82.5C 262.234,72.8291 264.4,63.1624 266.5,53.5C 268.379,52.6586 270.379,52.3253 272.5,52.5C 272.173,62.015 272.506,71.3483 273.5,80.5C 273.5,84.5 273.5,88.5 273.5,92.5C 271.833,92.5 270.167,92.5 268.5,92.5C 268.666,83.8269 268.5,75.1603 268,66.5C 265.846,75.1132 264.013,83.7798 262.5,92.5C 260.833,92.5 259.167,92.5 257.5,92.5C 255.987,83.7798 254.154,75.1132 252,66.5C 251.5,75.1603 251.334,83.8269 251.5,92.5C 249.833,92.5 248.167,92.5 246.5,92.5C 246.5,87.8333 246.5,83.1667 246.5,78.5C 247.493,70.0161 247.826,61.3494 247.5,52.5C 249.621,52.3253 251.621,52.6586 253.5,53.5 Z"/></g>
<g><path style="opacity:1" fill="#d4bc9f" d="M 332.5,51.5 C 337.833,51.5 343.167,51.5 348.5,51.5C 348.5,53.1667 348.5,54.8333 348.5,56.5C 345.167,56.5 341.833,56.5 338.5,56.5C 338.5,60.8333 338.5,65.1667 338.5,69.5C 341.167,69.5 343.833,69.5 346.5,69.5C 346.5,70.8333 346.5,72.1667 346.5,73.5C 343.833,73.5 341.167,73.5 338.5,73.5C 338.5,78.5 338.5,83.5 338.5,88.5C 341.833,88.5 345.167,88.5 348.5,88.5C 348.5,89.8333 348.5,91.1667 348.5,92.5C 343.167,92.5 337.833,92.5 332.5,92.5C 332.5,78.8333 332.5,65.1667 332.5,51.5 Z"/></g>
<g><path style="opacity:1" fill="#d2ba9d" d="M 156.5,53.5 C 158.833,53.5 161.167,53.5 163.5,53.5C 163.5,54.8333 163.5,56.1667 163.5,57.5C 159.932,57.7593 158.599,59.7593 159.5,63.5C 160.833,63.5 162.167,63.5 163.5,63.5C 163.5,64.8333 163.5,66.1667 163.5,67.5C 162.167,67.5 160.833,67.5 159.5,67.5C 159.5,75.8333 159.5,84.1667 159.5,92.5C 157.5,92.5 155.5,92.5 153.5,92.5C 153.5,84.1667 153.5,75.8333 153.5,67.5C 152.5,67.5 151.5,67.5 150.5,67.5C 150.5,66.1667 150.5,64.8333 150.5,63.5C 151.5,63.5 152.5,63.5 153.5,63.5C 153.022,59.6625 154.022,56.3291 156.5,53.5 Z"/></g>
<g><path style="opacity:1" fill="#cdb69a" d="M 50.5,54.5 C 52.5,54.5 54.5,54.5 56.5,54.5C 56.5,57.5 56.5,60.5 56.5,63.5C 57.8333,63.5 59.1667,63.5 60.5,63.5C 60.5,64.8333 60.5,66.1667 60.5,67.5C 59.1667,67.5 57.8333,67.5 56.5,67.5C 56.5,74.5 56.5,81.5 56.5,88.5C 57.8333,88.5 59.1667,88.5 60.5,88.5C 60.5,90.1667 60.5,91.8333 60.5,93.5C 56.3162,94.2964 53.1496,92.963 51,89.5C 50.5003,82.1742 50.3337,74.8409 50.5,67.5C 49.5,67.5 48.5,67.5 47.5,67.5C 47.5,66.1667 47.5,64.8333 47.5,63.5C 48.5,63.5 49.5,63.5 50.5,63.5C 50.5,60.5 50.5,57.5 50.5,54.5 Z"/></g>
<g><path style="opacity:1" fill="#cdb69a" d="M 85.5,54.5 C 87.5,54.5 89.5,54.5 91.5,54.5C 91.5,57.5 91.5,60.5 91.5,63.5C 92.8333,63.5 94.1667,63.5 95.5,63.5C 95.5,64.8333 95.5,66.1667 95.5,67.5C 94.1667,67.5 92.8333,67.5 91.5,67.5C 91.5,74.5 91.5,81.5 91.5,88.5C 92.8333,88.5 94.1667,88.5 95.5,88.5C 95.5,90.1667 95.5,91.8333 95.5,93.5C 91.3162,94.2964 88.1496,92.963 86,89.5C 85.5003,82.1742 85.3337,74.8409 85.5,67.5C 84.5,67.5 83.5,67.5 82.5,67.5C 82.5,66.1667 82.5,64.8333 82.5,63.5C 83.5,63.5 84.5,63.5 85.5,63.5C 85.5,60.5 85.5,57.5 85.5,54.5 Z"/></g>
<g><path style="opacity:1" fill="#cdb69a" d="M 178.5,54.5 C 180.5,54.5 182.5,54.5 184.5,54.5C 184.5,57.5 184.5,60.5 184.5,63.5C 185.833,63.5 187.167,63.5 188.5,63.5C 188.5,64.8333 188.5,66.1667 188.5,67.5C 187.167,67.5 185.833,67.5 184.5,67.5C 184.5,74.5 184.5,81.5 184.5,88.5C 185.833,88.5 187.167,88.5 188.5,88.5C 188.5,90.1667 188.5,91.8333 188.5,93.5C 184.316,94.2964 181.15,92.963 179,89.5C 178.5,82.1742 178.334,74.8409 178.5,67.5C 177.5,67.5 176.5,67.5 175.5,67.5C 175.5,66.1667 175.5,64.8333 175.5,63.5C 176.5,63.5 177.5,63.5 178.5,63.5C 178.5,60.5 178.5,57.5 178.5,54.5 Z"/></g>
<g><path style="opacity:1" fill="#ceb69a" d="M 66.5,63.5 C 69.8499,63.335 73.1832,63.5017 76.5,64C 77.7014,64.9025 78.5348,66.0692 79,67.5C 79.2947,75.8585 79.7947,84.1918 80.5,92.5C 78.5,92.5 76.5,92.5 74.5,92.5C 74.6495,91.448 74.4828,90.448 74,89.5C 69.9039,95.0669 66.2372,94.7336 63,88.5C 62.3429,81.1353 65.6763,76.4687 73,74.5C 73.7581,72.2305 73.5914,70.0639 72.5,68C 69.0699,67.3622 67.7366,68.8622 68.5,72.5C 66.5,72.5 64.5,72.5 62.5,72.5C 62.4825,68.8707 63.8158,65.8707 66.5,63.5 Z"/></g>
<g><path style="opacity:1" fill="#d0b89c" d="M 102.5,63.5 C 105.518,63.3354 108.518,63.502 111.5,64C 113.259,65.008 114.426,66.508 115,68.5C 115.498,71.8168 115.665,75.1501 115.5,78.5C 111.833,78.5 108.167,78.5 104.5,78.5C 104.335,81.5184 104.502,84.5184 105,87.5C 106.356,88.3802 107.856,88.7135 109.5,88.5C 109.5,86.5 109.5,84.5 109.5,82.5C 111.5,82.5 113.5,82.5 115.5,82.5C 116.014,88.8223 113.181,92.4889 107,93.5C 103.03,93.1869 100.364,91.1869 99,87.5C 98.3333,81.1667 98.3333,74.8333 99,68.5C 99.9973,66.6769 101.164,65.0103 102.5,63.5 Z"/></g>
<g><path style="opacity:1" fill="#cdb69a" d="M 134.5,63.5 C 137.518,63.3354 140.518,63.502 143.5,64C 145.333,64.5 146.5,65.6667 147,67.5C 147.667,74.5 147.667,81.5 147,88.5C 141.257,95.4212 135.924,95.0878 131,87.5C 130.333,81.1667 130.333,74.8333 131,68.5C 131.997,66.6769 133.164,65.0103 134.5,63.5 Z"/></g>
<g><path style="opacity:1" fill="#d0b89c" d="M 217.5,63.5 C 220.518,63.3354 223.518,63.502 226.5,64C 228.259,65.008 229.426,66.508 230,68.5C 230.498,71.8168 230.665,75.1501 230.5,78.5C 226.833,78.5 223.167,78.5 219.5,78.5C 219.335,81.5184 219.502,84.5184 220,87.5C 221.356,88.3802 222.856,88.7135 224.5,88.5C 224.5,86.5 224.5,84.5 224.5,82.5C 226.5,82.5 228.5,82.5 230.5,82.5C 231.014,88.8223 228.181,92.4889 222,93.5C 218.03,93.1869 215.364,91.1869 214,87.5C 213.333,81.1667 213.333,74.8333 214,68.5C 214.997,66.6769 216.164,65.0103 217.5,63.5 Z"/></g>
<g><path style="opacity:1" fill="#ceb69a" d="M 281.5,63.5 C 284.85,63.335 288.183,63.5017 291.5,64C 292.701,64.9025 293.535,66.0692 294,67.5C 294.295,75.8585 294.795,84.1918 295.5,92.5C 293.5,92.5 291.5,92.5 289.5,92.5C 289.649,91.448 289.483,90.448 289,89.5C 284.904,95.0669 281.237,94.7336 278,88.5C 277.343,81.1353 280.676,76.4687 288,74.5C 288.758,72.2305 288.591,70.0639 287.5,68C 284.07,67.3622 282.737,68.8622 283.5,72.5C 281.5,72.5 279.5,72.5 277.5,72.5C 277.482,68.8707 278.816,65.8707 281.5,63.5 Z"/></g>
<g><path style="opacity:1" fill="#d3ba9e" d="M 299.5,63.5 C 301.766,63.1412 303.599,63.8078 305,65.5C 307.497,63.5218 310.331,63.0218 313.5,64C 314.701,64.9025 315.535,66.0692 316,67.5C 316.667,74.5 316.667,81.5 316,88.5C 313.058,93.9916 309.391,94.6583 305,90.5C 304.501,94.1516 304.335,97.8183 304.5,101.5C 302.833,101.5 301.167,101.5 299.5,101.5C 299.5,88.8333 299.5,76.1667 299.5,63.5 Z"/></g>
<g><path style="opacity:1" fill="#887667" d="M 384.5,63.5 C 385.209,62.596 386.209,62.2627 387.5,62.5C 387.5,64.8333 387.5,67.1667 387.5,69.5C 385.833,69.5 384.167,69.5 382.5,69.5C 383.568,68.5655 384.901,68.2322 386.5,68.5C 386.923,66.2188 386.256,64.5521 384.5,63.5 Z"/></g>
<g><path style="opacity:1" fill="#cdb69a" d="M 393.5,63.5 C 396.518,63.3354 399.518,63.502 402.5,64C 404.333,64.5 405.5,65.6667 406,67.5C 406.667,74.5 406.667,81.5 406,88.5C 400.257,95.4212 394.924,95.0878 390,87.5C 389.333,81.1667 389.333,74.8333 390,68.5C 390.997,66.6769 392.164,65.0103 393.5,63.5 Z"/></g>
<g><path style="opacity:1" fill="#d3ba9e" d="M 411.5,63.5 C 413.766,63.1412 415.599,63.8078 417,65.5C 419.497,63.5218 422.331,63.0218 425.5,64C 426.701,64.9025 427.535,66.0692 428,67.5C 428.667,74.5 428.667,81.5 428,88.5C 425.058,93.9916 421.391,94.6583 417,90.5C 416.501,94.1516 416.335,97.8183 416.5,101.5C 414.833,101.5 413.167,101.5 411.5,101.5C 411.5,88.8333 411.5,76.1667 411.5,63.5 Z"/></g>
<g><path style="opacity:1" fill="#d0b89c" d="M 436.5,63.5 C 439.518,63.3354 442.518,63.502 445.5,64C 447.259,65.008 448.426,66.508 449,68.5C 449.498,71.8168 449.665,75.1501 449.5,78.5C 445.833,78.5 442.167,78.5 438.5,78.5C 438.335,81.5184 438.502,84.5184 439,87.5C 440.356,88.3802 441.856,88.7135 443.5,88.5C 443.5,86.5 443.5,84.5 443.5,82.5C 445.5,82.5 447.5,82.5 449.5,82.5C 450.014,88.8223 447.181,92.4889 441,93.5C 437.03,93.1869 434.364,91.1869 433,87.5C 432.333,81.1667 432.333,74.8333 433,68.5C 433.997,66.6769 435.164,65.0103 436.5,63.5 Z"/></g>
<g><path style="opacity:1" fill="#857464" d="M 299.5,63.5 C 299.5,76.1667 299.5,88.8333 299.5,101.5C 301.167,101.5 302.833,101.5 304.5,101.5C 302.735,102.461 300.735,102.795 298.5,102.5C 298.171,89.3226 298.505,76.3226 299.5,63.5 Z"/></g>
<g><path style="opacity:1" fill="#cdb69a" d="M 351.5,63.5 C 353.5,63.5 355.5,63.5 357.5,63.5C 357.334,71.5069 357.5,79.5069 358,87.5C 359.458,88.7468 360.958,88.7468 362.5,87.5C 363.498,79.5277 363.831,71.5277 363.5,63.5C 365.5,63.5 367.5,63.5 369.5,63.5C 369.5,73.1667 369.5,82.8333 369.5,92.5C 366.856,92.8399 364.523,92.1733 362.5,90.5C 359.485,93.7283 356.319,94.0616 353,91.5C 351.555,82.2736 351.055,72.9402 351.5,63.5 Z"/></g>
<g><path style="opacity:1" fill="#d9c0a2" d="M 384.5,63.5 C 386.256,64.5521 386.923,66.2188 386.5,68.5C 384.901,68.2322 383.568,68.5655 382.5,69.5C 381.85,69.8039 381.183,70.1373 380.5,70.5C 379.503,77.8032 379.169,85.1365 379.5,92.5C 377.833,92.5 376.167,92.5 374.5,92.5C 374.5,82.8333 374.5,73.1667 374.5,63.5C 376.167,63.5 377.833,63.5 379.5,63.5C 379.351,64.552 379.517,65.552 380,66.5C 381.129,64.8588 382.629,63.8588 384.5,63.5 Z"/></g>
<g><path style="opacity:1" fill="#857464" d="M 411.5,63.5 C 411.5,76.1667 411.5,88.8333 411.5,101.5C 413.167,101.5 414.833,101.5 416.5,101.5C 414.735,102.461 412.735,102.795 410.5,102.5C 410.171,89.3226 410.505,76.3226 411.5,63.5 Z"/></g>
<g><path style="opacity:1" fill="#2c1d27" d="M 109.5,69.5 C 109.5,71.1667 109.5,72.8333 109.5,74.5C 107.833,74.5 106.167,74.5 104.5,74.5C 104.338,72.4727 104.505,70.4727 105,68.5C 106.915,67.0844 108.415,67.4178 109.5,69.5 Z"/></g>
<g><path style="opacity:1" fill="#2d1e27" d="M 137.5,67.5 C 138.822,67.33 139.989,67.6634 141,68.5C 141.5,75.1583 141.666,81.825 141.5,88.5C 139.856,88.7135 138.356,88.3802 137,87.5C 136.208,80.7526 136.374,74.0859 137.5,67.5 Z"/></g>
<g><path style="opacity:1" fill="#2c1d27" d="M 224.5,69.5 C 224.5,71.1667 224.5,72.8333 224.5,74.5C 222.833,74.5 221.167,74.5 219.5,74.5C 219.338,72.4727 219.505,70.4727 220,68.5C 221.915,67.0844 223.415,67.4178 224.5,69.5 Z"/></g>
<g><path style="opacity:1" fill="#302129" d="M 306.5,67.5 C 307.822,67.33 308.989,67.6634 310,68.5C 310.667,74.8333 310.667,81.1667 310,87.5C 308.542,88.7468 307.042,88.7468 305.5,87.5C 303.938,80.5796 304.272,73.9129 306.5,67.5 Z"/></g>
<g><path style="opacity:1" fill="#2d1e27" d="M 396.5,67.5 C 397.822,67.33 398.989,67.6634 400,68.5C 400.5,75.1583 400.666,81.825 400.5,88.5C 398.856,88.7135 397.356,88.3802 396,87.5C 395.208,80.7526 395.374,74.0859 396.5,67.5 Z"/></g>
<g><path style="opacity:1" fill="#302129" d="M 418.5,67.5 C 419.822,67.33 420.989,67.6634 422,68.5C 422.667,74.8333 422.667,81.1667 422,87.5C 420.542,88.7468 419.042,88.7468 417.5,87.5C 415.938,80.5796 416.272,73.9129 418.5,67.5 Z"/></g>
<g><path style="opacity:1" fill="#2c1d27" d="M 443.5,69.5 C 443.5,71.1667 443.5,72.8333 443.5,74.5C 441.833,74.5 440.167,74.5 438.5,74.5C 438.338,72.4727 438.505,70.4727 439,68.5C 440.915,67.0844 442.415,67.4178 443.5,69.5 Z"/></g>
<g><path style="opacity:1" fill="#837263" d="M 109.5,69.5 C 110.461,71.2646 110.795,73.2646 110.5,75.5C 108.265,75.7947 106.265,75.4614 104.5,74.5C 106.167,74.5 107.833,74.5 109.5,74.5C 109.5,72.8333 109.5,71.1667 109.5,69.5 Z"/></g>
<g><path style="opacity:1" fill="#837263" d="M 224.5,69.5 C 225.461,71.2646 225.795,73.2646 225.5,75.5C 223.265,75.7947 221.265,75.4614 219.5,74.5C 221.167,74.5 222.833,74.5 224.5,74.5C 224.5,72.8333 224.5,71.1667 224.5,69.5 Z"/></g>
<g><path style="opacity:1" fill="#837263" d="M 443.5,69.5 C 444.461,71.2646 444.795,73.2646 444.5,75.5C 442.265,75.7947 440.265,75.4614 438.5,74.5C 440.167,74.5 441.833,74.5 443.5,74.5C 443.5,72.8333 443.5,71.1667 443.5,69.5 Z"/></g>
<g><path style="opacity:1" fill="#a08d78" d="M 253.5,53.5 C 251.621,52.6586 249.621,52.3253 247.5,52.5C 247.826,61.3494 247.493,70.0161 246.5,78.5C 246.5,69.5 246.5,60.5 246.5,51.5C 249.388,50.9898 251.721,51.6565 253.5,53.5 Z"/></g>
<g><path style="opacity:1" fill="#a18d79" d="M 273.5,80.5 C 272.506,71.3483 272.173,62.015 272.5,52.5C 270.379,52.3253 268.379,52.6586 266.5,53.5C 268.279,51.6565 270.612,50.9898 273.5,51.5C 273.5,61.1667 273.5,70.8333 273.5,80.5 Z"/></g>
<g><path style="opacity:1" fill="#30212a" d="M 72.5,78.5 C 73.6341,80.9664 73.8007,83.633 73,86.5C 71.6439,87.3802 70.1439,87.7135 68.5,87.5C 67.9807,83.5475 69.3141,80.5475 72.5,78.5 Z"/></g>
<g><path style="opacity:1" fill="#30212a" d="M 287.5,78.5 C 288.634,80.9664 288.801,83.633 288,86.5C 286.644,87.3802 285.144,87.7135 283.5,87.5C 282.981,83.5475 284.314,80.5475 287.5,78.5 Z"/></g>
<g><path style="opacity:1" fill="#782221" d="M 216.5,137.5 C 305.466,134.067 374.966,168.733 425,241.5C 446.383,274.03 455.383,309.697 452,348.5C 449.752,378.41 443.418,407.41 433,435.5C 427.121,450.267 419.454,463.934 410,476.5C 352.667,534.5 295.333,592.5 238,650.5C 178.971,591.138 120.305,531.472 62,471.5C 44.5967,444.971 33.2633,415.971 28,384.5C 14.341,333.133 21.6743,285.133 50,240.5C 89.7306,180.875 145.231,146.542 216.5,137.5 Z"/></g>
<g><path style="opacity:1" fill="#d6bc9f" d="M 104.5,477.5 C 105.241,474.703 105.907,471.87 106.5,469C 106.684,467.624 107.351,466.791 108.5,466.5C 151.104,510.272 193.937,553.938 237,597.5C 286.694,549.47 335.694,500.137 384,449.5C 394.815,433.57 402.649,416.237 407.5,397.5C 409.181,394.418 409.848,391.085 409.5,387.5C 417.423,359.238 418.923,330.572 414,301.5C 394.23,246.063 357.064,207.229 302.5,185C 220.96,159.229 151.793,178.062 95,241.5C 77.5079,261.818 65.8412,285.151 60,311.5C 57.3041,351.626 63.6375,390.293 79,427.5C 81.4375,433.392 84.6042,438.726 88.5,443.5C 87.781,447.165 86.9476,450.832 86,454.5C 85.3292,455.252 84.4959,455.586 83.5,455.5C 69.9845,435.788 60.8178,414.121 56,390.5C 50.3057,365.805 47.9723,340.805 49,315.5C 53.9169,286.673 65.5836,261.006 84,238.5C 138.369,174.155 206.869,151.321 289.5,170C 349.904,188.741 393.071,226.908 419,284.5C 427.496,306.84 429.829,329.84 426,353.5C 423.584,380.162 417.251,405.829 407,430.5C 403.011,439.82 398.011,448.487 392,456.5C 341.833,507.333 291.667,558.167 241.5,609C 239.167,609.667 236.833,609.667 234.5,609C 191.299,564.966 147.966,521.133 104.5,477.5 Z"/></g>
<g><path style="opacity:1" fill="#772221" d="M 409.5,387.5 C 409.136,380.374 407.969,373.374 406,366.5C 401.471,361.308 396.971,356.141 392.5,351C 382.86,344.353 373.527,337.353 364.5,330C 362.212,329.178 359.878,328.511 357.5,328C 352.833,324.667 348.167,321.333 343.5,318C 338.543,316.511 333.543,315.178 328.5,314C 315.52,309.347 302.854,303.847 290.5,297.5C 286.754,293.094 283.42,288.427 280.5,283.5C 280.99,278.686 281.324,273.853 281.5,269C 281.485,265.424 280.818,262.258 279.5,259.5C 279.5,258.833 279.833,258.5 280.5,258.5C 281.651,253.35 281.817,248.016 281,242.5C 280.722,241.584 280.222,240.918 279.5,240.5C 277.745,238.239 276.578,235.572 276,232.5C 270.835,227.474 265.335,223.141 259.5,219.5C 257.614,218.935 255.947,217.935 254.5,216.5C 245.153,215.316 235.82,215.483 226.5,217C 224.68,217.2 223.347,218.034 222.5,219.5C 216.271,223.549 210.438,228.216 205,233.5C 201.333,238.5 197.667,243.5 194,248.5C 188.694,259.78 182.36,270.447 175,280.5C 174.047,283.432 173.547,286.432 173.5,289.5C 172.5,289.5 171.5,289.5 170.5,289.5C 170.663,291.857 170.497,294.19 170,296.5C 166.336,305.651 162.836,314.818 159.5,324C 154.58,330.737 149.914,337.57 145.5,344.5C 142.102,347.627 139.435,351.293 137.5,355.5C 130.5,364.004 123.667,372.671 117,381.5C 115.495,384.895 113.995,388.229 112.5,391.5C 110.163,393.666 107.663,395.666 105,397.5C 103.642,403.268 102.142,408.935 100.5,414.5C 98.2089,417.499 96.3756,420.832 95,424.5C 95.0284,428.723 93.6951,432.389 91,435.5C 89.8644,438.096 89.031,440.763 88.5,443.5C 84.6042,438.726 81.4375,433.392 79,427.5C 63.6375,390.293 57.3041,351.626 60,311.5C 65.8412,285.151 77.5079,261.818 95,241.5C 151.793,178.062 220.96,159.229 302.5,185C 357.064,207.229 394.23,246.063 414,301.5C 418.923,330.572 417.423,359.238 409.5,387.5 Z"/></g>
<g><path style="opacity:1" fill="#541f24" d="M 259.5,219.5 C 254.035,217.876 248.368,216.876 242.5,216.5C 235.751,217.07 229.084,218.07 222.5,219.5C 223.347,218.034 224.68,217.2 226.5,217C 235.82,215.483 245.153,215.316 254.5,216.5C 255.947,217.935 257.614,218.935 259.5,219.5 Z"/></g>
<g><path style="opacity:1" fill="#4d2026" d="M 279.5,240.5 C 280.222,240.918 280.722,241.584 281,242.5C 281.817,248.016 281.651,253.35 280.5,258.5C 280.64,252.464 280.307,246.464 279.5,240.5 Z"/></g>
<g><path style="opacity:1" fill="#dac1a3" d="M 216.5,276.5 C 219.641,280.037 222.807,283.703 226,287.5C 228.354,296.205 233.187,303.205 240.5,308.5C 240.5,309.5 240.5,310.5 240.5,311.5C 244.39,311.728 248.224,311.394 252,310.5C 253.3,311.707 254.8,312.374 256.5,312.5C 258.997,314.871 261.997,315.871 265.5,315.5C 266.539,307.005 266.539,298.672 265.5,290.5C 264.599,288.273 262.933,287.273 260.5,287.5C 260.183,284.428 260.516,281.428 261.5,278.5C 262.452,280.045 262.785,281.712 262.5,283.5C 264.288,283.785 265.955,283.452 267.5,282.5C 268.551,279.243 269.218,275.91 269.5,272.5C 272.285,273.084 273.952,272.084 274.5,269.5C 276.47,266.672 278.303,263.672 280,260.5C 281.289,268.21 280.456,275.544 277.5,282.5C 277.5,283.167 277.167,283.5 276.5,283.5C 275.684,287.102 274.351,290.602 272.5,294C 272.974,295.608 273.641,295.774 274.5,294.5C 275.747,292.677 276.414,290.677 276.5,288.5C 277.959,288.433 279.292,288.766 280.5,289.5C 281.906,294.809 283.239,300.142 284.5,305.5C 284.573,311.895 285.239,318.228 286.5,324.5C 287.182,325.243 287.849,325.909 288.5,326.5C 289.845,331.183 291.178,335.849 292.5,340.5C 294.44,344.244 295.773,348.244 296.5,352.5C 296.833,355.833 297.167,359.167 297.5,362.5C 298.5,362.5 299.5,362.5 300.5,362.5C 299.908,365.631 300.908,367.964 303.5,369.5C 305.04,371.838 305.706,374.505 305.5,377.5C 306.258,383.738 307.591,389.738 309.5,395.5C 309.5,395.833 309.5,396.167 309.5,396.5C 309.882,401.092 310.882,405.425 312.5,409.5C 312.508,412.545 312.841,415.545 313.5,418.5C 313.333,434.503 313.5,450.503 314,466.5C 314.179,470.025 314.679,473.359 315.5,476.5C 315.5,477.5 315.5,478.5 315.5,479.5C 289.16,507.506 262.827,535.506 236.5,563.5C 212.143,539.144 188.143,514.477 164.5,489.5C 164.243,485.829 163.243,482.495 161.5,479.5C 160.201,461.973 160.201,444.307 161.5,426.5C 162.043,417.501 163.376,408.501 165.5,399.5C 166.461,397.735 166.795,395.735 166.5,393.5C 167.385,382.999 168.052,372.332 168.5,361.5C 168.213,345.798 168.546,330.131 169.5,314.5C 171.025,310.331 172.359,305.998 173.5,301.5C 177.462,302.09 181.462,302.09 185.5,301.5C 185.833,301.5 186.167,301.5 186.5,301.5C 189.908,300.422 191.908,298.089 192.5,294.5C 195.26,292.905 197.093,290.572 198,287.5C 200.267,280.332 201.434,272.999 201.5,265.5C 201.334,261.486 201.501,257.486 202,253.5C 202.383,252.944 202.883,252.611 203.5,252.5C 204.675,251.026 205.675,249.36 206.5,247.5C 207.328,251.796 207.828,256.129 208,260.5C 209.878,264.694 211.212,269.027 212,273.5C 213.4,274.748 214.9,275.748 216.5,276.5 Z"/></g>
<g><path style="opacity:1" fill="#906859" d="M 279.5,259.5 C 280.818,262.258 281.485,265.424 281.5,269C 281.324,273.853 280.99,278.686 280.5,283.5C 279.609,282.89 278.609,282.557 277.5,282.5C 280.456,275.544 281.289,268.21 280,260.5C 278.303,263.672 276.47,266.672 274.5,269.5C 275.354,265.678 277.021,262.344 279.5,259.5 Z"/></g>
<g><path style="opacity:1" fill="#867565" d="M 274.5,269.5 C 273.952,272.084 272.285,273.084 269.5,272.5C 270.965,271.263 272.632,270.263 274.5,269.5 Z"/></g>
<g><path style="opacity:1" fill="#a18d79" d="M 269.5,272.5 C 269.218,275.91 268.551,279.243 267.5,282.5C 265.955,283.452 264.288,283.785 262.5,283.5C 262.785,281.712 262.452,280.045 261.5,278.5C 260.516,281.428 260.183,284.428 260.5,287.5C 262.933,287.273 264.599,288.273 265.5,290.5C 263.685,289.37 261.685,288.704 259.5,288.5C 258.352,284.814 258.352,281.147 259.5,277.5C 262.175,276.004 264.175,276.671 265.5,279.5C 266.843,277.096 268.177,274.762 269.5,272.5 Z"/></g>
<g><path style="opacity:1" fill="#8f7d6c" d="M 276.5,283.5 C 276.5,284.833 276.5,286.167 276.5,287.5C 278.483,287.157 279.817,287.824 280.5,289.5C 279.292,288.766 277.959,288.433 276.5,288.5C 276.414,290.677 275.747,292.677 274.5,294.5C 273.641,295.774 272.974,295.608 272.5,294C 274.351,290.602 275.684,287.102 276.5,283.5 Z"/></g>
<g><path style="opacity:1" fill="#2d1d27" d="M 259.5,219.5 C 265.335,223.141 270.835,227.474 276,232.5C 276.578,235.572 277.745,238.239 279.5,240.5C 280.307,246.464 280.64,252.464 280.5,258.5C 279.833,258.5 279.5,258.833 279.5,259.5C 277.021,262.344 275.354,265.678 274.5,269.5C 272.632,270.263 270.965,271.263 269.5,272.5C 268.177,274.762 266.843,277.096 265.5,279.5C 264.175,276.671 262.175,276.004 259.5,277.5C 258.352,281.147 258.352,284.814 259.5,288.5C 261.685,288.704 263.685,289.37 265.5,290.5C 266.539,298.672 266.539,307.005 265.5,315.5C 261.997,315.871 258.997,314.871 256.5,312.5C 252.316,307.187 248.316,301.854 244.5,296.5C 243.403,291.73 240.737,288.064 236.5,285.5C 237.514,284.235 239.014,283.569 241,283.5C 251.176,286.021 253.009,283.354 246.5,275.5C 244.706,273.203 242.706,271.037 240.5,269C 234.758,268.071 229.091,266.904 223.5,265.5C 223.5,265.167 223.5,264.833 223.5,264.5C 223.586,263.504 223.252,262.671 222.5,262C 219.798,260.988 217.465,259.488 215.5,257.5C 214.791,256.596 213.791,256.263 212.5,256.5C 212.663,258.857 212.497,261.19 212,263.5C 211.802,261.618 211.302,259.952 210.5,258.5C 210.331,253.819 209.998,249.152 209.5,244.5C 207.517,244.157 206.183,244.824 205.5,246.5C 203.926,248.102 203.259,250.102 203.5,252.5C 202.883,252.611 202.383,252.944 202,253.5C 201.501,257.486 201.334,261.486 201.5,265.5C 199.561,272.274 198.061,279.274 197,286.5C 195.677,289.309 194.177,291.975 192.5,294.5C 190.529,296.808 188.529,299.142 186.5,301.5C 186.167,301.5 185.833,301.5 185.5,301.5C 182.275,301.589 179.275,300.923 176.5,299.5C 174.97,299.64 173.97,300.307 173.5,301.5C 169.997,305.031 168.663,309.364 169.5,314.5C 168.546,330.131 168.213,345.798 168.5,361.5C 166.823,367.584 166.156,373.918 166.5,380.5C 165.596,381.209 165.263,382.209 165.5,383.5C 162.245,382.047 159.912,383.047 158.5,386.5C 157.448,386.351 156.448,386.517 155.5,387C 151.308,390.589 147.975,394.756 145.5,399.5C 143.141,402.851 140.808,406.185 138.5,409.5C 136.233,412.271 133.733,414.938 131,417.5C 129.293,419.909 128.46,422.575 128.5,425.5C 123.898,432.976 119.398,440.642 115,448.5C 113.062,454.685 110.895,460.685 108.5,466.5C 107.351,466.791 106.684,467.624 106.5,469C 105.907,471.87 105.241,474.703 104.5,477.5C 102.67,483.207 99.6696,488.373 95.5,493C 92.8333,493.667 90.1667,493.667 87.5,493C 86.944,492.617 86.6107,492.117 86.5,491.5C 84.8414,484.622 84.1747,477.622 84.5,470.5C 84.7787,465.405 84.4454,460.405 83.5,455.5C 84.4959,455.586 85.3292,455.252 86,454.5C 86.9476,450.832 87.781,447.165 88.5,443.5C 89.031,440.763 89.8644,438.096 91,435.5C 93.6951,432.389 95.0284,428.723 95,424.5C 96.3756,420.832 98.2089,417.499 100.5,414.5C 102.772,410.5 104.605,406.167 106,401.5C 107.992,398.017 110.158,394.684 112.5,391.5C 113.995,388.229 115.495,384.895 117,381.5C 123.667,372.671 130.5,364.004 137.5,355.5C 140.898,352.373 143.565,348.707 145.5,344.5C 149.914,337.57 154.58,330.737 159.5,324C 162.836,314.818 166.336,305.651 170,296.5C 170.497,294.19 170.663,291.857 170.5,289.5C 171.5,289.5 172.5,289.5 173.5,289.5C 173.547,286.432 174.047,283.432 175,280.5C 182.36,270.447 188.694,259.78 194,248.5C 197.667,243.5 201.333,238.5 205,233.5C 210.438,228.216 216.271,223.549 222.5,219.5C 229.084,218.07 235.751,217.07 242.5,216.5C 248.368,216.876 254.035,217.876 259.5,219.5 Z"/></g>
<g><path style="opacity:1" fill="#766559" d="M 185.5,301.5 C 181.462,302.09 177.462,302.09 173.5,301.5C 173.97,300.307 174.97,299.64 176.5,299.5C 179.275,300.923 182.275,301.589 185.5,301.5 Z"/></g>
<g><path style="opacity:1" fill="#756458" d="M 192.5,294.5 C 191.908,298.089 189.908,300.422 186.5,301.5C 188.529,299.142 190.529,296.808 192.5,294.5 Z"/></g>
<g><path style="opacity:1" fill="#9c8875" d="M 236.5,285.5 C 240.737,288.064 243.403,291.73 244.5,296.5C 243.206,295.71 242.039,294.71 241,293.5C 239.677,290.691 238.177,288.025 236.5,285.5 Z"/></g>
<g><path style="opacity:1" fill="#8a7868" d="M 201.5,265.5 C 201.434,272.999 200.267,280.332 198,287.5C 197.093,290.572 195.26,292.905 192.5,294.5C 194.177,291.975 195.677,289.309 197,286.5C 198.061,279.274 199.561,272.274 201.5,265.5 Z"/></g>
<g><path style="opacity:1" fill="#5d4e48" d="M 215.5,257.5 C 214.167,257.5 213.5,258.167 213.5,259.5C 213.338,261.527 213.505,263.527 214,265.5C 216.699,270.187 219.366,274.853 222,279.5C 227.801,285.431 231.801,292.431 234,300.5C 236.537,303.372 239.37,305.872 242.5,308C 241.906,308.464 241.239,308.631 240.5,308.5C 233.187,303.205 228.354,296.205 226,287.5C 222.807,283.703 219.641,280.037 216.5,276.5C 215.114,272.727 213.448,269.061 211.5,265.5C 210.526,263.257 210.192,260.924 210.5,258.5C 211.302,259.952 211.802,261.618 212,263.5C 212.497,261.19 212.663,258.857 212.5,256.5C 213.791,256.263 214.791,256.596 215.5,257.5 Z"/></g>
<g><path style="opacity:1" fill="#806f61" d="M 246.5,275.5 C 253.009,283.354 251.176,286.021 241,283.5C 239.014,283.569 237.514,284.235 236.5,285.5C 234.348,284.923 234.015,283.756 235.5,282C 239.871,281.371 244.204,281.537 248.5,282.5C 247.551,280.263 246.884,277.929 246.5,275.5 Z"/></g>
<g><path style="opacity:1" fill="#d0b89c" d="M 213.5,259.5 C 217.074,260.621 220.408,262.287 223.5,264.5C 223.5,264.833 223.5,265.167 223.5,265.5C 224.405,266.702 224.405,268.036 223.5,269.5C 222.34,272.57 223.007,275.404 225.5,278C 231.014,279.327 232.681,277.493 230.5,272.5C 229.005,272.011 227.671,271.345 226.5,270.5C 226.5,269.833 226.167,269.5 225.5,269.5C 225.791,268.351 226.624,267.684 228,267.5C 231.612,269.02 235.445,269.854 239.5,270C 241.441,272.454 243.775,274.287 246.5,275.5C 246.884,277.929 247.551,280.263 248.5,282.5C 244.204,281.537 239.871,281.371 235.5,282C 234.015,283.756 234.348,284.923 236.5,285.5C 238.177,288.025 239.677,290.691 241,293.5C 242.039,294.71 243.206,295.71 244.5,296.5C 248.316,301.854 252.316,307.187 256.5,312.5C 254.8,312.374 253.3,311.707 252,310.5C 248.224,311.394 244.39,311.728 240.5,311.5C 240.5,310.5 240.5,309.5 240.5,308.5C 241.239,308.631 241.906,308.464 242.5,308C 239.37,305.872 236.537,303.372 234,300.5C 231.801,292.431 227.801,285.431 222,279.5C 219.366,274.853 216.699,270.187 214,265.5C 213.505,263.527 213.338,261.527 213.5,259.5 Z"/></g>
<g><path style="opacity:1" fill="#554642" d="M 223.5,269.5 C 224.167,269.5 224.833,269.5 225.5,269.5C 226.167,269.5 226.5,269.833 226.5,270.5C 225.351,270.791 224.684,271.624 224.5,273C 224.667,273.833 224.833,274.667 225,275.5C 226.699,276.406 228.533,276.739 230.5,276.5C 230.5,275.167 230.5,273.833 230.5,272.5C 232.681,277.493 231.014,279.327 225.5,278C 223.007,275.404 222.34,272.57 223.5,269.5 Z"/></g>
<g><path style="opacity:1" fill="#2e2028" d="M 226.5,270.5 C 227.671,271.345 229.005,272.011 230.5,272.5C 230.5,273.833 230.5,275.167 230.5,276.5C 228.533,276.739 226.699,276.406 225,275.5C 224.833,274.667 224.667,273.833 224.5,273C 224.684,271.624 225.351,270.791 226.5,270.5 Z"/></g>
<g><path style="opacity:1" fill="#827062" d="M 223.5,265.5 C 229.091,266.904 234.758,268.071 240.5,269C 242.706,271.037 244.706,273.203 246.5,275.5C 243.775,274.287 241.441,272.454 239.5,270C 235.445,269.854 231.612,269.02 228,267.5C 226.624,267.684 225.791,268.351 225.5,269.5C 224.833,269.5 224.167,269.5 223.5,269.5C 224.405,268.036 224.405,266.702 223.5,265.5 Z"/></g>
<g><path style="opacity:1" fill="#baa48b" d="M 205.5,246.5 C 206.5,246.5 207.5,246.5 208.5,246.5C 208.717,250.705 209.383,254.705 210.5,258.5C 210.192,260.924 210.526,263.257 211.5,265.5C 213.448,269.061 215.114,272.727 216.5,276.5C 214.9,275.748 213.4,274.748 212,273.5C 211.212,269.027 209.878,264.694 208,260.5C 207.828,256.129 207.328,251.796 206.5,247.5C 205.675,249.36 204.675,251.026 203.5,252.5C 203.259,250.102 203.926,248.102 205.5,246.5 Z"/></g>
<g><path style="opacity:1" fill="#8c7a69" d="M 215.5,257.5 C 217.465,259.488 219.798,260.988 222.5,262C 223.252,262.671 223.586,263.504 223.5,264.5C 220.408,262.287 217.074,260.621 213.5,259.5C 213.5,258.167 214.167,257.5 215.5,257.5 Z"/></g>
<g><path style="opacity:1" fill="#65554d" d="M 210.5,258.5 C 209.383,254.705 208.717,250.705 208.5,246.5C 207.5,246.5 206.5,246.5 205.5,246.5C 206.183,244.824 207.517,244.157 209.5,244.5C 209.998,249.152 210.331,253.819 210.5,258.5 Z"/></g>
<g><path style="opacity:1" fill="#93806f" d="M 173.5,301.5 C 172.359,305.998 171.025,310.331 169.5,314.5C 168.663,309.364 169.997,305.031 173.5,301.5 Z"/></g>
<g><path style="opacity:1" fill="#d8bfa2" d="M 319.5,315.5 C 322.127,316.105 324.793,316.605 327.5,317C 330.727,319.112 334.06,320.945 337.5,322.5C 339.121,324.942 341.454,326.275 344.5,326.5C 348.932,331.563 354.598,334.896 361.5,336.5C 364.331,337.079 366.664,338.412 368.5,340.5C 368.804,341.15 369.137,341.817 369.5,342.5C 372.908,343.099 375.908,344.432 378.5,346.5C 380.569,349.573 383.236,351.906 386.5,353.5C 389.167,356.833 392.167,359.833 395.5,362.5C 396.688,371.788 393.354,378.788 385.5,383.5C 384.391,383.557 383.391,383.89 382.5,384.5C 376.109,383.971 370.776,381.305 366.5,376.5C 366.586,375.504 366.252,374.671 365.5,374C 362.23,372.541 358.897,371.374 355.5,370.5C 352.061,368.386 348.394,366.719 344.5,365.5C 343.077,363.455 341.077,362.455 338.5,362.5C 337.656,360.241 335.989,359.241 333.5,359.5C 332.282,358.839 330.949,358.172 329.5,357.5C 321.171,356.417 312.838,355.417 304.5,354.5C 302.5,354.5 300.5,354.5 298.5,354.5C 297.739,348.909 296.405,343.576 294.5,338.5C 292.591,332.663 291.258,326.663 290.5,320.5C 291.687,318.928 292.687,317.261 293.5,315.5C 297.375,315.104 301.208,314.438 305,313.5C 309.794,314.453 314.627,315.12 319.5,315.5 Z"/></g>
<g><path style="opacity:1" fill="#311f28" d="M 277.5,282.5 C 278.609,282.557 279.609,282.89 280.5,283.5C 283.42,288.427 286.754,293.094 290.5,297.5C 302.854,303.847 315.52,309.347 328.5,314C 333.543,315.178 338.543,316.511 343.5,318C 348.167,321.333 352.833,324.667 357.5,328C 359.878,328.511 362.212,329.178 364.5,330C 373.527,337.353 382.86,344.353 392.5,351C 396.971,356.141 401.471,361.308 406,366.5C 407.969,373.374 409.136,380.374 409.5,387.5C 409.848,391.085 409.181,394.418 407.5,397.5C 397.703,397.617 389.536,393.951 383,386.5C 382.536,385.906 382.369,385.239 382.5,384.5C 383.391,383.89 384.391,383.557 385.5,383.5C 386.873,383.657 388.207,383.49 389.5,383C 391.667,380.167 393.833,377.333 396,374.5C 396.812,370.311 396.645,366.311 395.5,362.5C 393.5,358.5 390.5,355.5 386.5,353.5C 384.431,350.427 381.764,348.094 378.5,346.5C 376.022,343.214 372.689,341.214 368.5,340.5C 366.664,338.412 364.331,337.079 361.5,336.5C 356.006,332.918 350.339,329.585 344.5,326.5C 342.879,324.058 340.546,322.725 337.5,322.5C 334.06,320.945 330.727,319.112 327.5,317C 324.793,316.605 322.127,316.105 319.5,315.5C 319.209,314.351 318.376,313.684 317,313.5C 309.815,312.251 302.648,312.417 295.5,314C 294.584,314.278 293.918,314.778 293.5,315.5C 292.687,317.261 291.687,318.928 290.5,320.5C 289.833,321.833 289.167,323.167 288.5,324.5C 287.115,318.055 285.782,311.722 284.5,305.5C 283.239,300.142 281.906,294.809 280.5,289.5C 279.817,287.824 278.483,287.157 276.5,287.5C 276.5,286.167 276.5,284.833 276.5,283.5C 277.167,283.5 277.5,283.167 277.5,282.5 Z"/></g>
<g><path style="opacity:1" fill="#917f6d" d="M 319.5,315.5 C 314.627,315.12 309.794,314.453 305,313.5C 301.208,314.438 297.375,315.104 293.5,315.5C 293.918,314.778 294.584,314.278 295.5,314C 302.648,312.417 309.815,312.251 317,313.5C 318.376,313.684 319.209,314.351 319.5,315.5 Z"/></g>
<g><path style="opacity:1" fill="#ac9781" d="M 284.5,305.5 C 285.782,311.722 287.115,318.055 288.5,324.5C 288.5,325.167 288.5,325.833 288.5,326.5C 287.849,325.909 287.182,325.243 286.5,324.5C 285.239,318.228 284.573,311.895 284.5,305.5 Z"/></g>
<g><path style="opacity:1" fill="#685950" d="M 337.5,322.5 C 340.546,322.725 342.879,324.058 344.5,326.5C 341.454,326.275 339.121,324.942 337.5,322.5 Z"/></g>
<g><path style="opacity:1" fill="#a8937e" d="M 344.5,326.5 C 350.339,329.585 356.006,332.918 361.5,336.5C 354.598,334.896 348.932,331.563 344.5,326.5 Z"/></g>
<g><path style="opacity:1" fill="#60514a" d="M 290.5,320.5 C 291.258,326.663 292.591,332.663 294.5,338.5C 294.869,340.993 294.203,341.66 292.5,340.5C 291.178,335.849 289.845,331.183 288.5,326.5C 288.5,325.833 288.5,325.167 288.5,324.5C 289.167,323.167 289.833,321.833 290.5,320.5 Z"/></g>
<g><path style="opacity:1" fill="#726257" d="M 368.5,340.5 C 372.689,341.214 376.022,343.214 378.5,346.5C 375.908,344.432 372.908,343.099 369.5,342.5C 369.137,341.817 368.804,341.15 368.5,340.5 Z"/></g>
<g><path style="opacity:1" fill="#66574e" d="M 378.5,346.5 C 381.764,348.094 384.431,350.427 386.5,353.5C 383.236,351.906 380.569,349.573 378.5,346.5 Z"/></g>
<g><path style="opacity:1" fill="#531f24" d="M 145.5,344.5 C 143.565,348.707 140.898,352.373 137.5,355.5C 139.435,351.293 142.102,347.627 145.5,344.5 Z"/></g>
<g><path style="opacity:1" fill="#866c5d" d="M 294.5,338.5 C 296.405,343.576 297.739,348.909 298.5,354.5C 300.5,354.5 302.5,354.5 304.5,354.5C 305.833,355.167 307.167,355.833 308.5,356.5C 306.08,356.708 303.747,356.374 301.5,355.5C 299.889,356.32 299.222,357.654 299.5,359.5C 298.349,357.221 297.349,354.888 296.5,352.5C 295.773,348.244 294.44,344.244 292.5,340.5C 294.203,341.66 294.869,340.993 294.5,338.5 Z"/></g>
<g><path style="opacity:1" fill="#5f5049" d="M 386.5,353.5 C 390.5,355.5 393.5,358.5 395.5,362.5C 392.167,359.833 389.167,356.833 386.5,353.5 Z"/></g>
<g><path style="opacity:1" fill="#782221" d="M 308.5,356.5 C 311.385,356.194 314.052,356.527 316.5,357.5C 323.728,358.946 331.061,360.613 338.5,362.5C 340.216,363.971 342.216,364.971 344.5,365.5C 348.394,366.719 352.061,368.386 355.5,370.5C 358.646,373.244 362.313,375.244 366.5,376.5C 370.776,381.305 376.109,383.971 382.5,384.5C 382.369,385.239 382.536,385.906 383,386.5C 389.536,393.951 397.703,397.617 407.5,397.5C 402.649,416.237 394.815,433.57 384,449.5C 335.694,500.137 286.694,549.47 237,597.5C 193.937,553.938 151.104,510.272 108.5,466.5C 110.895,460.685 113.062,454.685 115,448.5C 119.398,440.642 123.898,432.976 128.5,425.5C 130.163,423.507 131.33,421.174 132,418.5C 133.378,416.787 135.045,415.453 137,414.5C 137.608,412.846 138.108,411.179 138.5,409.5C 140.808,406.185 143.141,402.851 145.5,399.5C 149.035,395.645 152.702,391.812 156.5,388C 158.473,387.505 160.473,387.338 162.5,387.5C 162.294,391.898 162.627,396.232 163.5,400.5C 161.922,409.067 161.256,417.734 161.5,426.5C 160.201,444.307 160.201,461.973 161.5,479.5C 161.995,481.824 161.995,483.991 161.5,486C 162.371,487.364 163.371,488.53 164.5,489.5C 188.143,514.477 212.143,539.144 236.5,563.5C 262.827,535.506 289.16,507.506 315.5,479.5C 316.283,476.491 316.95,473.324 317.5,470C 316.397,463.331 315.397,456.831 314.5,450.5C 314.828,439.654 314.494,428.987 313.5,418.5C 312.841,415.545 312.508,412.545 312.5,409.5C 312.982,405.889 312.982,402.389 312.5,399C 311.87,397.69 310.87,396.856 309.5,396.5C 309.5,396.167 309.5,395.833 309.5,395.5C 309.357,393.738 309.691,392.071 310.5,390.5C 308.97,386.998 307.97,383.331 307.5,379.5C 307.253,378.287 306.586,377.62 305.5,377.5C 305.706,374.505 305.04,371.838 303.5,369.5C 303.274,365.603 301.941,362.27 299.5,359.5C 299.222,357.654 299.889,356.32 301.5,355.5C 303.747,356.374 306.08,356.708 308.5,356.5 Z"/></g>
<g><path style="opacity:1" fill="#b8967f" d="M 304.5,354.5 C 312.838,355.417 321.171,356.417 329.5,357.5C 330.949,358.172 332.282,358.839 333.5,359.5C 328.044,357.88 322.377,357.213 316.5,357.5C 314.052,356.527 311.385,356.194 308.5,356.5C 307.167,355.833 305.833,355.167 304.5,354.5 Z"/></g>
<g><path style="opacity:1" fill="#986858" d="M 316.5,357.5 C 322.377,357.213 328.044,357.88 333.5,359.5C 335.989,359.241 337.656,360.241 338.5,362.5C 331.061,360.613 323.728,358.946 316.5,357.5 Z"/></g>
<g><path style="opacity:1" fill="#a57d6a" d="M 338.5,362.5 C 341.077,362.455 343.077,363.455 344.5,365.5C 342.216,364.971 340.216,363.971 338.5,362.5 Z"/></g>
<g><path style="opacity:1" fill="#b1947d" d="M 296.5,352.5 C 297.349,354.888 298.349,357.221 299.5,359.5C 301.941,362.27 303.274,365.603 303.5,369.5C 300.908,367.964 299.908,365.631 300.5,362.5C 299.5,362.5 298.5,362.5 297.5,362.5C 297.167,359.167 296.833,355.833 296.5,352.5 Z"/></g>
<g><path style="opacity:1" fill="#a47966" d="M 355.5,370.5 C 358.897,371.374 362.23,372.541 365.5,374C 366.252,374.671 366.586,375.504 366.5,376.5C 362.313,375.244 358.646,373.244 355.5,370.5 Z"/></g>
<g><path style="opacity:1" fill="#9d816e" d="M 168.5,361.5 C 168.052,372.332 167.385,382.999 166.5,393.5C 166.5,389.167 166.5,384.833 166.5,380.5C 166.156,373.918 166.823,367.584 168.5,361.5 Z"/></g>
<g><path style="opacity:1" fill="#5c4c47" d="M 395.5,362.5 C 396.645,366.311 396.812,370.311 396,374.5C 393.833,377.333 391.667,380.167 389.5,383C 388.207,383.49 386.873,383.657 385.5,383.5C 393.354,378.788 396.688,371.788 395.5,362.5 Z"/></g>
<g><path style="opacity:1" fill="#481e25" d="M 165.5,383.5 C 165.725,388.248 165.225,392.915 164,397.5C 163.828,393.129 163.328,388.796 162.5,384.5C 161.378,385.63 160.044,386.297 158.5,386.5C 159.912,383.047 162.245,382.047 165.5,383.5 Z"/></g>
<g><path style="opacity:1" fill="#642728" d="M 166.5,380.5 C 166.5,384.833 166.5,389.167 166.5,393.5C 166.795,395.735 166.461,397.735 165.5,399.5C 164.833,399.833 164.167,400.167 163.5,400.5C 162.627,396.232 162.294,391.898 162.5,387.5C 160.473,387.338 158.473,387.505 156.5,388C 152.702,391.812 149.035,395.645 145.5,399.5C 147.975,394.756 151.308,390.589 155.5,387C 156.448,386.517 157.448,386.351 158.5,386.5C 160.044,386.297 161.378,385.63 162.5,384.5C 163.328,388.796 163.828,393.129 164,397.5C 165.225,392.915 165.725,388.248 165.5,383.5C 165.263,382.209 165.596,381.209 166.5,380.5 Z"/></g>
<g><path style="opacity:1" fill="#8d5347" d="M 305.5,377.5 C 306.586,377.62 307.253,378.287 307.5,379.5C 307.97,383.331 308.97,386.998 310.5,390.5C 309.691,392.071 309.357,393.738 309.5,395.5C 307.591,389.738 306.258,383.738 305.5,377.5 Z"/></g>
<g><path style="opacity:1" fill="#5e2023" d="M 112.5,391.5 C 110.158,394.684 107.992,398.017 106,401.5C 104.605,406.167 102.772,410.5 100.5,414.5C 102.142,408.935 103.642,403.268 105,397.5C 107.663,395.666 110.163,393.666 112.5,391.5 Z"/></g>
<g><path style="opacity:1" fill="#8b5246" d="M 309.5,396.5 C 310.87,396.856 311.87,397.69 312.5,399C 312.982,402.389 312.982,405.889 312.5,409.5C 310.882,405.425 309.882,401.092 309.5,396.5 Z"/></g>
<g><path style="opacity:1" fill="#9f7462" d="M 165.5,399.5 C 163.376,408.501 162.043,417.501 161.5,426.5C 161.256,417.734 161.922,409.067 163.5,400.5C 164.167,400.167 164.833,399.833 165.5,399.5 Z"/></g>
<g><path style="opacity:1" fill="#5d2024" d="M 138.5,409.5 C 138.108,411.179 137.608,412.846 137,414.5C 135.045,415.453 133.378,416.787 132,418.5C 131.33,421.174 130.163,423.507 128.5,425.5C 128.46,422.575 129.293,419.909 131,417.5C 133.733,414.938 136.233,412.271 138.5,409.5 Z"/></g>
<g><path style="opacity:1" fill="#bd9c84" d="M 313.5,418.5 C 314.494,428.987 314.828,439.654 314.5,450.5C 314.656,459.175 314.989,467.842 315.5,476.5C 314.679,473.359 314.179,470.025 314,466.5C 313.5,450.503 313.333,434.503 313.5,418.5 Z"/></g>
<g><path style="opacity:1" fill="#986758" d="M 314.5,450.5 C 315.397,456.831 316.397,463.331 317.5,470C 316.95,473.324 316.283,476.491 315.5,479.5C 315.5,478.5 315.5,477.5 315.5,476.5C 314.989,467.842 314.656,459.175 314.5,450.5 Z"/></g>
<g><path style="opacity:1" fill="#8e5649" d="M 161.5,479.5 C 163.243,482.495 164.243,485.829 164.5,489.5C 163.371,488.53 162.371,487.364 161.5,486C 161.995,483.991 161.995,481.824 161.5,479.5 Z"/></g>
<g><path style="opacity:1" fill="#551f24" d="M 84.5,470.5 C 84.1747,477.622 84.8414,484.622 86.5,491.5C 85.3995,489.723 84.5662,487.723 84,485.5C 83.1837,480.316 83.3503,475.316 84.5,470.5 Z"/></g>
<g><path style="opacity:1" fill="#9d8a76" d="M 40.5,701.5 C 36.5,701.5 32.5,701.5 28.5,701.5C 28.5,714.833 28.5,728.167 28.5,741.5C 27.5043,728.01 27.171,714.344 27.5,700.5C 32.0323,700.182 36.3656,700.515 40.5,701.5 Z"/></g>
<g><path style="opacity:1" fill="#cfb79b" d="M 40.5,701.5 C 44.8166,702.32 47.3166,704.987 48,709.5C 48.6667,717.167 48.6667,724.833 48,732.5C 47.3322,736.499 45.1655,739.332 41.5,741C 37.1794,741.499 32.8461,741.666 28.5,741.5C 28.5,728.167 28.5,714.833 28.5,701.5C 32.5,701.5 36.5,701.5 40.5,701.5 Z"/></g>
<g><path style="opacity:1" fill="#c8b196" d="M 178.5,700.5 C 187.363,699.043 192.03,702.71 192.5,711.5C 191.167,711.5 189.833,711.5 188.5,711.5C 188.316,704.683 184.983,702.683 178.5,705.5C 177.147,708.245 177.314,710.912 179,713.5C 184.412,718.241 189.079,723.574 193,729.5C 194.167,739 190,743.167 180.5,742C 175.149,739.796 173.149,735.963 174.5,730.5C 175.167,730.167 175.833,729.833 176.5,729.5C 177.36,732.593 178.694,735.427 180.5,738C 188.59,739.244 191.09,736.077 188,728.5C 182.966,723.801 178.3,718.801 174,713.5C 172.379,707.923 173.879,703.589 178.5,700.5 Z"/></g>
<g><path style="opacity:1" fill="#d1b99c" d="M 250.5,700.5 C 251.833,700.5 253.167,700.5 254.5,700.5C 254.5,714.167 254.5,727.833 254.5,741.5C 253.167,741.5 251.833,741.5 250.5,741.5C 250.5,727.833 250.5,714.167 250.5,700.5 Z"/></g>
<g><path style="opacity:1" fill="#cab397" d="M 344.5,700.5 C 357.956,700.724 361.79,707.058 356,719.5C 351.957,725.753 347.79,731.92 343.5,738C 348.155,738.499 352.821,738.666 357.5,738.5C 357.5,739.5 357.5,740.5 357.5,741.5C 351.167,741.5 344.833,741.5 338.5,741.5C 338.491,739.692 338.991,738.025 340,736.5C 345.433,729.3 350.1,721.634 354,713.5C 355.623,705.452 352.623,702.786 345,705.5C 343.748,708.014 343.248,710.68 343.5,713.5C 341.833,713.5 340.167,713.5 338.5,713.5C 338.272,707.984 340.272,703.651 344.5,700.5 Z"/></g>
<g><path style="opacity:1" fill="#ceb69a" d="M 369.5,700.5 C 376.624,698.972 381.124,701.639 383,708.5C 383.667,717.167 383.667,725.833 383,734.5C 379.72,742.695 374.22,744.528 366.5,740C 365.283,738.352 364.45,736.519 364,734.5C 363.077,724.426 363.41,714.426 365,704.5C 366.397,702.93 367.897,701.596 369.5,700.5 Z"/></g>
<g><path style="opacity:1" fill="#cab397" d="M 394.5,700.5 C 407.956,700.724 411.79,707.058 406,719.5C 401.957,725.753 397.79,731.92 393.5,738C 398.155,738.499 402.821,738.666 407.5,738.5C 407.5,739.5 407.5,740.5 407.5,741.5C 401.167,741.5 394.833,741.5 388.5,741.5C 388.491,739.692 388.991,738.025 390,736.5C 395.433,729.3 400.1,721.634 404,713.5C 405.623,705.452 402.623,702.786 395,705.5C 393.748,708.014 393.248,710.68 393.5,713.5C 391.833,713.5 390.167,713.5 388.5,713.5C 388.272,707.984 390.272,703.651 394.5,700.5 Z"/></g>
<g><path style="opacity:1" fill="#c8b196" d="M 414.5,700.5 C 419.833,700.5 425.167,700.5 430.5,700.5C 430.5,701.833 430.5,703.167 430.5,704.5C 426.167,704.5 421.833,704.5 417.5,704.5C 417.334,708.846 417.501,713.179 418,717.5C 425.115,713.723 429.782,715.723 432,723.5C 433.38,730.148 431.88,735.981 427.5,741C 418.194,743.872 413.527,740.372 413.5,730.5C 414.833,730.5 416.167,730.5 417.5,730.5C 417.118,738.492 420.284,740.492 427,736.5C 427.667,731.5 427.667,726.5 427,721.5C 425.991,720.342 424.658,719.675 423,719.5C 420.067,720.279 417.234,721.279 414.5,722.5C 414.5,715.167 414.5,707.833 414.5,700.5 Z"/></g>
<g><path style="opacity:1" fill="#8d7a6a" d="M 39.5,704.5 C 37.1667,704.5 34.8333,704.5 32.5,704.5C 32.5,715.833 32.5,727.167 32.5,738.5C 31.5051,727.012 31.1717,715.345 31.5,703.5C 34.3854,703.194 37.0521,703.527 39.5,704.5 Z"/></g>
<g><path style="opacity:1" fill="#2c1d27" d="M 39.5,704.5 C 41.1132,704.944 42.2798,705.944 43,707.5C 43.6667,716.5 43.6667,725.5 43,734.5C 42.5,736.333 41.3333,737.5 39.5,738C 37.1902,738.497 34.8568,738.663 32.5,738.5C 32.5,727.167 32.5,715.833 32.5,704.5C 34.8333,704.5 37.1667,704.5 39.5,704.5 Z"/></g>
<g><path style="opacity:1" fill="#ccb499" d="M 237.5,703.5 C 238.833,703.5 240.167,703.5 241.5,703.5C 241.5,706.5 241.5,709.5 241.5,712.5C 243.167,712.5 244.833,712.5 246.5,712.5C 246.5,713.5 246.5,714.5 246.5,715.5C 244.833,715.5 243.167,715.5 241.5,715.5C 241.334,722.841 241.5,730.174 242,737.5C 243.356,738.38 244.856,738.714 246.5,738.5C 245.712,742.797 243.379,743.63 239.5,741C 238.874,740.25 238.374,739.416 238,738.5C 237.5,730.841 237.334,723.174 237.5,715.5C 236.5,715.5 235.5,715.5 234.5,715.5C 234.5,714.5 234.5,713.5 234.5,712.5C 235.5,712.5 236.5,712.5 237.5,712.5C 237.5,709.5 237.5,706.5 237.5,703.5 Z"/></g>
<g><path style="opacity:1" fill="#31222a" d="M 370.5,703.5 C 374.273,702.822 377.106,704.156 379,707.5C 379.667,716.167 379.667,724.833 379,733.5C 377.923,738.115 375.09,739.615 370.5,738C 369.107,736.829 368.273,735.329 368,733.5C 367.333,724.833 367.333,716.167 368,707.5C 369.095,706.307 369.928,704.973 370.5,703.5 Z"/></g>
<g><path style="opacity:1" fill="#ceb69a" d="M 74.5,712.5 C 76.451,712.227 77.951,712.893 79,714.5C 82.3333,711.833 85.6667,711.833 89,714.5C 89.4998,723.494 89.6664,732.494 89.5,741.5C 88.1667,741.5 86.8333,741.5 85.5,741.5C 85.6664,733.16 85.4997,724.827 85,716.5C 82.7328,715.065 80.7328,715.398 79,717.5C 78.5003,725.493 78.3336,733.493 78.5,741.5C 77.1667,741.5 75.8333,741.5 74.5,741.5C 74.5,731.833 74.5,722.167 74.5,712.5 Z"/></g>
<g><path style="opacity:1" fill="#cdb599" d="M 105.5,700.5 C 106.833,700.5 108.167,700.5 109.5,700.5C 109.5,714.167 109.5,727.833 109.5,741.5C 107.856,741.714 106.356,741.38 105,740.5C 99.7542,743.716 96.0875,742.382 94,736.5C 93.3333,730.167 93.3333,723.833 94,717.5C 95.9224,712.51 99.4224,711.176 104.5,713.5C 105.492,709.217 105.826,704.884 105.5,700.5 Z"/></g>
<g><path style="opacity:1" fill="#cab398" d="M 120.5,711.5 C 123.588,711.377 126.255,712.377 128.5,714.5C 130.256,718.288 130.922,722.288 130.5,726.5C 126.5,726.5 122.5,726.5 118.5,726.5C 118.15,730.546 118.817,734.38 120.5,738C 125.508,738.878 127.508,736.712 126.5,731.5C 127.833,731.5 129.167,731.5 130.5,731.5C 130.442,741.436 125.942,744.436 117,740.5C 116.333,739.167 115.667,737.833 115,736.5C 114.333,730.167 114.333,723.833 115,717.5C 115.727,714.309 117.561,712.309 120.5,711.5 Z"/></g>
<g><path style="opacity:1" fill="#cab398" d="M 140.5,711.5 C 143.588,711.377 146.255,712.377 148.5,714.5C 150.256,718.288 150.922,722.288 150.5,726.5C 146.5,726.5 142.5,726.5 138.5,726.5C 138.15,730.546 138.817,734.38 140.5,738C 145.508,738.878 147.508,736.712 146.5,731.5C 147.833,731.5 149.167,731.5 150.5,731.5C 150.442,741.436 145.942,744.436 137,740.5C 136.333,739.167 135.667,737.833 135,736.5C 134.333,730.167 134.333,723.833 135,717.5C 135.727,714.309 137.561,712.309 140.5,711.5 Z"/></g>
<g><path style="opacity:1" fill="#cab297" d="M 211.5,718.5 C 211.5,719.833 211.5,721.167 211.5,722.5C 210.5,722.5 209.5,722.5 208.5,722.5C 208.939,715.949 206.439,714.282 201,717.5C 200.325,724.528 200.492,731.528 201.5,738.5C 207.502,739.196 209.835,736.529 208.5,730.5C 209.833,730.5 211.167,730.5 212.5,730.5C 213.209,740.643 208.876,744.143 199.5,741C 198.54,739.581 197.707,738.081 197,736.5C 196.11,729.086 196.443,721.753 198,714.5C 202.167,710.583 206.333,710.583 210.5,714.5C 211.246,715.736 211.579,717.07 211.5,718.5 Z"/></g>
<g><path style="opacity:1" fill="#cab397" d="M 221.5,711.5 C 226.062,711.361 229.229,713.361 231,717.5C 231.667,723.833 231.667,730.167 231,736.5C 228.523,742.45 224.357,743.95 218.5,741C 217.54,739.581 216.707,738.081 216,736.5C 215.333,730.167 215.333,723.833 216,717.5C 216.727,714.309 218.561,712.309 221.5,711.5 Z"/></g>
<g><path style="opacity:1" fill="#c9b196" d="M 264.5,711.5 C 268.888,710.943 272.055,712.61 274,716.5C 274.5,724.827 274.666,733.16 274.5,741.5C 272.549,741.773 271.049,741.107 270,739.5C 263.869,744.333 260.036,742.833 258.5,735C 260.283,729.216 264.117,725.383 270,723.5C 270.43,720.808 270.263,718.141 269.5,715.5C 264.5,714.5 262.5,716.5 263.5,721.5C 262.167,721.5 260.833,721.5 259.5,721.5C 258.58,716.781 260.247,713.448 264.5,711.5 Z"/></g>
<g><path style="opacity:1" fill="#ceb69a" d="M 279.5,712.5 C 281.451,712.227 282.951,712.893 284,714.5C 287.333,711.833 290.667,711.833 294,714.5C 294.5,723.494 294.666,732.494 294.5,741.5C 293.167,741.5 291.833,741.5 290.5,741.5C 290.666,733.16 290.5,724.827 290,716.5C 287.733,715.065 285.733,715.398 284,717.5C 283.5,725.493 283.334,733.493 283.5,741.5C 282.167,741.5 280.833,741.5 279.5,741.5C 279.5,731.833 279.5,722.167 279.5,712.5 Z"/></g>
<g><path style="opacity:1" fill="#cdb599" d="M 310.5,700.5 C 311.833,700.5 313.167,700.5 314.5,700.5C 314.5,714.167 314.5,727.833 314.5,741.5C 312.856,741.714 311.356,741.38 310,740.5C 304.754,743.716 301.088,742.382 299,736.5C 298.333,730.167 298.333,723.833 299,717.5C 300.922,712.51 304.422,711.176 309.5,713.5C 310.492,709.217 310.826,704.884 310.5,700.5 Z"/></g>
<g><path style="opacity:1" fill="#c5ae94" d="M 52.5,712.5 C 54.1667,712.5 55.8333,712.5 57.5,712.5C 57.5,721.167 57.5,729.833 57.5,738.5C 60.0444,738.896 62.2111,738.229 64,736.5C 64.4997,728.507 64.6664,720.507 64.5,712.5C 65.8333,712.5 67.1667,712.5 68.5,712.5C 68.5,722.167 68.5,731.833 68.5,741.5C 66.549,741.773 65.049,741.107 64,739.5C 60.7732,742.66 57.4398,742.994 54,740.5C 52.5545,731.274 52.0545,721.94 52.5,712.5 Z"/></g>
<g><path style="opacity:1" fill="#2d1e27" d="M 99.5,715.5 C 101.262,715.357 102.929,715.691 104.5,716.5C 105.664,723.476 105.831,730.476 105,737.5C 100.65,739.635 98.317,738.301 98,733.5C 97.0361,727.319 97.5361,721.319 99.5,715.5 Z"/></g>
<g><path style="opacity:1" fill="#31222b" d="M 119.5,715.5 C 125.831,715.11 128.164,718.11 126.5,724.5C 123.833,724.5 121.167,724.5 118.5,724.5C 118.368,721.43 118.701,718.43 119.5,715.5 Z"/></g>
<g><path style="opacity:1" fill="#31222b" d="M 139.5,715.5 C 145.831,715.11 148.164,718.11 146.5,724.5C 143.833,724.5 141.167,724.5 138.5,724.5C 138.368,721.43 138.701,718.43 139.5,715.5 Z"/></g>
<g><path style="opacity:1" fill="#2f2029" d="M 220.5,715.5 C 223.044,715.104 225.211,715.771 227,717.5C 227.72,724.536 227.553,731.536 226.5,738.5C 224.5,738.5 222.5,738.5 220.5,738.5C 219.243,730.813 219.243,723.147 220.5,715.5 Z"/></g>
<g><path style="opacity:1" fill="#2d1e27" d="M 304.5,715.5 C 306.262,715.357 307.929,715.691 309.5,716.5C 310.664,723.476 310.831,730.476 310,737.5C 305.65,739.635 303.317,738.301 303,733.5C 302.036,727.319 302.536,721.319 304.5,715.5 Z"/></g>
<g><path style="opacity:1" fill="#7c6b5d" d="M 211.5,718.5 C 212.451,719.919 212.784,721.585 212.5,723.5C 210.901,723.768 209.568,723.434 208.5,722.5C 209.5,722.5 210.5,722.5 211.5,722.5C 211.5,721.167 211.5,719.833 211.5,718.5 Z"/></g>
<g><path style="opacity:1" fill="#32232b" d="M 269.5,726.5 C 270.638,729.304 270.805,732.304 270,735.5C 268.012,738.838 265.679,739.172 263,736.5C 262.333,735.167 262.333,733.833 263,732.5C 264.872,730.153 267.039,728.153 269.5,726.5 Z"/></g>
<g><path style="opacity:1" fill="#b6a088" d="M 154.5,735.5 C 156.167,735.5 157.833,735.5 159.5,735.5C 160.383,740.226 159.216,744.226 156,747.5C 155.5,747 155,746.5 154.5,746C 155.574,745.261 156.241,744.261 156.5,743C 154.915,740.744 154.248,738.244 154.5,735.5 Z"/></g>
<g><path style="opacity:1" fill="#b6a088" d="M 319.5,735.5 C 321.167,735.5 322.833,735.5 324.5,735.5C 325.383,740.226 324.216,744.226 321,747.5C 320.5,747 320,746.5 319.5,746C 320.574,745.261 321.241,744.261 321.5,743C 319.915,740.744 319.248,738.244 319.5,735.5 Z"/></g>
</svg>
