<?xml version="1.0" encoding="UTF-8" standalone="no"?>
<!-- Generator: Adobe Illustrator 22.0.0, SVG Export Plug-In . SVG Version: 6.00 Build 0)  -->

<svg
   xmlns:dc="http://purl.org/dc/elements/1.1/"
   xmlns:cc="http://creativecommons.org/ns#"
   xmlns:rdf="http://www.w3.org/1999/02/22-rdf-syntax-ns#"
   xmlns:svg="http://www.w3.org/2000/svg"
   xmlns="http://www.w3.org/2000/svg"
   xmlns:sodipodi="http://sodipodi.sourceforge.net/DTD/sodipodi-0.dtd"
   xmlns:inkscape="http://www.inkscape.org/namespaces/inkscape"
   version="1.1"
   id="Layer_1"
   x="0px"
   y="0px"
   viewBox="0 0 2692.1617 508.10689"
   xml:space="preserve"
   sodipodi:docname="State_of_the_Map_2025_logo-wide.svg"
   inkscape:version="0.92.5 (2060ec1f9f, 2020-04-08)"
   width="2692.1616"
   height="508.1069"
   inkscape:export-filename="/home/gregory/Documents/projects/sotm-europe/logo/State_of_the_Map_2025_logo.png"
   inkscape:export-xdpi="96"
   inkscape:export-ydpi="96"><metadata
     id="metadata211"><rdf:RDF><cc:Work
         rdf:about=""><dc:format>image/svg+xml</dc:format><dc:type
           rdf:resource="http://purl.org/dc/dcmitype/StillImage" /><dc:title></dc:title></cc:Work></rdf:RDF></metadata><defs
     id="defs209"><clipPath
       id="a"><path
         inkscape:connector-curvature="0"
         d="M 319,222.14 H 881 V 977.85 H 319 Z"
         id="path8054" /></clipPath></defs><sodipodi:namedview
     pagecolor="#ffffff"
     bordercolor="#666666"
     borderopacity="1"
     objecttolerance="10"
     gridtolerance="10"
     guidetolerance="10"
     inkscape:pageopacity="0"
     inkscape:pageshadow="2"
     inkscape:window-width="1848"
     inkscape:window-height="1016"
     id="namedview207"
     showgrid="false"
     inkscape:zoom="0.43184544"
     inkscape:cx="1318.9852"
     inkscape:cy="80.766492"
     inkscape:window-x="72"
     inkscape:window-y="419"
     inkscape:window-maximized="1"
     inkscape:current-layer="g213"
     showguides="true"
     inkscape:guide-bbox="true"
     fit-margin-top="0"
     fit-margin-left="0"
     fit-margin-right="0"
     fit-margin-bottom="0"><sodipodi:guide
       position="213.10001,2.9685864e-05"
       orientation="1,0"
       id="guide8654"
       inkscape:locked="false" /><sodipodi:guide
       position="1.0985141,479.3943"
       orientation="1,0"
       id="guide8758"
       inkscape:locked="false" /></sodipodi:namedview><style
     type="text/css"
     id="style2">
	.st0{fill:#FFFFFF;}
</style><g
     id="g213"
     transform="translate(-76.6,-15.693075)"><path
       style="fill:#f82249;fill-opacity:1"
       inkscape:connector-curvature="0"
       id="path70"
       d="m 289.7,523.79998 c -1.7,-2 -3.4,-4.2 -5.4,-6.1 -10.5,-10.3 -21.1,-20.4 -31.6,-30.7 -8.1,-7.8 -16.1,-15.7 -24.2,-23.5 -12.9,-12.5 -25.9,-25 -38.8,-37.6 -18.1,-17.8 -36.3,-35.6 -54.2,-53.7 -14.7,-14.9 -26.6,-31.9 -36.1,-50.6 -9.4,-18.7 -16.1,-38.2 -19.5,-58.8 -1.5,-8.9 -2.4,-18 -2.9,-27 -0.5,-8.7 -0.6,-17.5 0.1,-26.2 0.7,-8.7 2.1,-17.5 3.9,-26.1 7.4,-36.1 23.3,-68.1 47.6,-95.700004 30.4,-34.500004 68,-57.000004 112.9,-67.100004 19.4,-4.4 39.1,-5.9 59,-4.5 46.1,3.2 87,19.4 122.3,49.3 35.6,30.100004 58.7,68.100008 69.4,113.500008 4.7,20.1 6.2,40.5 4.9,61 -2.8,41.5 -16.7,78.8 -41.4,112.2 -6.7,9 -14.2,17.2 -22.1,25.2 -19.9,20.2 -39.7,40.5 -59.5,60.8 -9.8,10 -19.7,20.1 -29.5,30.1 -16,16.4 -32,32.8 -48.1,49.2 -2.2,2.1 -4.5,4.1 -6.8,6.3 z m -0.1,-28.2 c 0.6,-0.6 1.1,-1.1 1.6,-1.6 8.7,-8.9 17.4,-17.8 26.1,-26.8 13.9,-14.2 27.9,-28.5 41.8,-42.7 20.4,-20.8 40.8,-41.6 61.2,-62.3 13.5,-13.7 24.6,-29.1 33.4,-46.2 12.5,-24.4 19.2,-50.3 20.3,-77.7 0.9,-22 -2,-43.6 -8.8,-64.5 -13.2,-40.3 -37.3,-72.6 -72.1,-96.800008 -27.4,-19 -57.8,-29.6 -91,-32.3 -19.2,-1.6 -38.1,-0.3 -56.8,4.2 -44.2,10.5 -80.1,33.800004 -107.4,70.000008 -23.9,31.6 -36.3,67.4 -37.4,107.1 0,0.9 -0.1,1.8 -0.1,2.7 -0.2,11.4 0.6,22.7 2.6,33.9 3.2,18.5 9,36.2 17.5,53 8.3,16.3 18.5,31.4 31.4,44.3 22.2,22.3 44.8,44.3 67.2,66.3 15.3,15 30.8,29.9 46.1,44.9 7.3,7.1 14.5,14.3 21.8,21.5 0.8,0.9 1.6,1.9 2.6,3 z"
       class="st0" /><path
       style="display:inline;fill:#ffffff;fill-opacity:1"
       inkscape:connector-curvature="0"
       id="path72"
       d="m 289.6,495.59998 c -1,-1.1 -1.8,-2.1 -2.7,-3.1 -7.3,-7.2 -14.5,-14.4 -21.8,-21.5 -15.4,-15 -30.8,-29.9 -46.1,-44.9 -22.5,-22 -45,-44 -67.2,-66.3 -12.9,-13 -23.1,-28 -31.4,-44.3 -8.5,-16.8 -14.4,-34.4 -17.5,-53 -1.9,-11.2 -2.8,-22.5 -2.6,-33.9 0,-0.9 0,-1.8 0.1,-2.7 1.1,-39.7 13.5,-75.5 37.4,-107.1 27.3,-36.200004 63.3,-59.500008 107.4,-70.000008 18.7,-4.4 37.7,-5.7 56.8,-4.2 33.2,2.7 63.6,13.4 91,32.3 34.8,24.100008 58.9,56.500008 72.1,96.800008 6.9,20.9 9.7,42.5 8.8,64.5 -1.1,27.4 -7.8,53.3 -20.3,77.7 -8.7,17.1 -19.9,32.5 -33.4,46.2 -20.4,20.8 -40.8,41.6 -61.2,62.3 -13.9,14.2 -27.9,28.5 -41.8,42.7 -8.7,8.9 -17.4,17.8 -26.1,26.8 -0.4,0.6 -0.9,1.1 -1.5,1.7 z m 0.4,-11.3 c 0.3,-0.4 0.7,-1.1 1.3,-1.7 13.8,-14.2 27.6,-28.3 41.5,-42.5 9.7,-9.9 19.4,-19.8 29.1,-29.7 15.9,-16.3 31.7,-32.8 47.9,-48.8 14.3,-14.2 26.4,-29.8 35.5,-47.7 13.7,-27 20.3,-55.6 19.3,-85.9 -0.3,-9.1 -1,-18.1 -2.7,-27 -8.6,-44.8 -30.8,-81.4 -67,-109.000004 -41,-31.200004 -87.3,-42.200004 -137.9,-34.000004 -33.9,5.5 -63.8,20.100004 -89.1,43.400008 -35.8,32.9 -55.2,73.7 -58.2,122.2 -0.9,14.2 0.1,28.3 2.8,42.3 6.4,33.5 21,62.8 44.3,87.6 12.7,13.5 26.1,26.3 39.2,39.3 10.5,10.4 21.3,20.6 31.9,30.9 13.1,12.7 26.1,25.3 39.2,38 7.6,7.5 15.1,14.9 22.9,22.6 z" /><path
       style="fill:#f82249;fill-opacity:1"
       d="M 238.07617,69.486328 C 227.43151,69.432111 216.56875,70.305859 205.5,72.099609 171.6,77.599609 141.70039,92.299996 116.40039,115.5 80.600391,148.3 61.199219,189.19922 58.199219,237.69922 57.299219,251.89922 58.3,266 61,280 c 6.4,33.4 21.100781,62.79961 44.30078,87.59961 12.6,13.5 25.99922,26.30078 39.19922,39.30078 10.6,10.4 21.30039,20.60039 31.90039,30.90039 13.1,12.6 26.19922,25.3 39.19922,38 7.6,7.3 15.10039,14.69844 22.90039,22.39844 0.3,-0.4 0.69961,-1.1 1.09961,-1.5 13.8,-14.2 27.7,-28.3 41.5,-42.5 L 310.19922,424.5 c 16,-16.3 31.70039,-32.70078 47.90039,-48.80078 14.3,-14.1 26.4,-29.79922 35.5,-47.69922 13.7,-27 20.30078,-55.60039 19.30078,-85.90039 -0.3,-9.1 -1.00117,-18.1 -2.70117,-27 -8.6,-44.8 -30.8,-81.4 -67,-109 -31.875,-24.375004 -67.10639,-36.419648 -105.12305,-36.613282 z"
       transform="translate(51.5,-13.900029)"
       id="path1847"
       inkscape:connector-curvature="0"
       sodipodi:nodetypes="scccccccccccccccccs" /><g
       transform="matrix(-0.43118719,0,0,0.42803022,547.30636,-19.766106)"
       clip-path="url(#a)"
       id="g8061"
       style="fill:#ffffff;fill-opacity:1"
       inkscape:export-xdpi="96"
       inkscape:export-ydpi="96"><path
         inkscape:connector-curvature="0"
         d="m 491.05,976.03 c -2.0117,-1.4922 -2.4648,-2.9844 -1.7578,-5.8008 0.52344,-2.0859 0.69141,-3.793 0.37109,-3.793 -0.32031,0 -4.7656,1.957 -9.875,4.3516 -12.203,5.7109 -18.332,6.6953 -21.559,3.4648 -1.3594,-1.3594 -2.1328,-3.3594 -1.7148,-4.4492 0.63281,-1.6523 0.11719,-1.6445 -3.1875,0.0664 -2.168,1.1211 -7.4219,2.6719 -11.668,3.4453 -26.328,4.7852 -13.75,-16.492 19.523,-33.027 l 11.688,-5.8086 -5.4336,-6.5117 c -24.453,-29.316 -40.426,-71.832 -45.738,-121.77 -1.8125,-17.016 -1.8594,-61.312 -0.0898,-79.629 0.71875,-7.4414 1.0508,-13.785 0.73438,-14.102 -0.31642,-0.317 -2.3672,1.5312 -4.5586,4.1055 -10.703,12.562 -17.066,22.539 -27.762,43.52 -6.4062,12.566 -14.746,27.707 -18.535,33.648 -7.7617,12.168 -23.809,28.355 -31.008,31.273 -10.84,4.3945 -17.434,-4.1133 -20.312,-26.215 -5.2266,-40.125 12.938,-107.79 47.352,-176.38 19.445,-38.762 44.328,-76.016 76.926,-115.17 7.5117,-9.0234 13.879,-18.203 15.254,-21.98 11,-30.312 25.215,-57.594 42.918,-82.367 11.621,-16.262 13.996,-22.234 12.586,-31.633 -2.6367,-17.59 -17.621,-35.195 -46.207,-54.305 -19.586,-13.094 -26.18,-15.84 -50.191,-20.906 -19.781,-4.1758 -19.996,-4.2617 -19.996,-7.8047 0,-7.9297 13.422,-16.004 32.344,-19.453 6.9492,-1.2695 17.133,-3.1445 22.633,-4.1719 13.906,-2.5938 31.055,-9.5 45.16,-18.188 21.121,-13.008 29.418,-16.906 43.668,-20.52 26.66,-6.7617 56.941,-4.3086 80.004,6.4805 29.473,13.793 53.941,40.324 65.547,71.078 6.7227,17.812 9.1641,32.215 9.9961,58.926 l 0.77734,24.988 16.227,32.844 c 8.9258,18.062 19.492,41.691 23.484,52.504 7.1016,19.238 7.5977,20.082 22.996,39.27 55.93,69.691 93.594,142.98 113.65,221.12 5.3359,20.789 5.4531,21.809 5.4414,46.953 -0.0117,22.086 -0.41406,26.793 -2.8516,33.441 -6.0078,16.375 -14.902,16.949 -30.77,1.9805 -12.465,-11.758 -21.648,-25.402 -33.613,-49.941 -10.32,-21.164 -23.117,-41.195 -31.516,-49.328 l -5.4688,-5.2969 0.48438,36.438 c 0.55469,41.629 -1.4336,62.641 -8.6211,91.219 -8.6992,34.594 -25.656,68.832 -43.602,88.051 l -6.1836,6.6211 13.328,6.4844 c 26.738,13.008 41.844,28.801 32.387,33.863 -3.3398,1.7891 -15.164,-0.14453 -21.73,-3.5547 -3.5664,-1.8477 -3.9023,-1.8008 -3.9023,0.57031 0,7.3047 -9.832,7.3945 -25.152,0.22266 -9.2148,-4.3125 -9.4336,-4.3438 -8.625,-1.2617 1.0859,4.1602 -2.6992,8.2656 -7.625,8.2656 -2.1094,0 -9.9805,-3.1289 -17.488,-6.9531 l -13.656,-6.9531 1.4375,4.125 c 3.0508,8.7539 -4.7188,10.844 -17.199,4.625 -9.8125,-4.8906 -14.508,-11.703 -14.508,-21.047 v -6.9688 l -4.6406,0.92578 c -2.5508,0.51172 -13.957,1.3008 -25.348,1.7578 -18.641,0.74609 -33.516,-0.33594 -45.383,-3.3047 -3.0859,-0.77344 -3.207,-0.51562 -2.3359,4.9375 1.6328,10.219 -6.5039,20.73 -19.629,25.363 -7.3711,2.6016 -9.0352,2.582 -11.75,-0.12891 -1.6562,-1.6562 -1.8555,-3.0703 -0.81641,-5.8047 0.75391,-1.9883 1.375,-3.8164 1.375,-4.0625 0,-0.2461 -5.6211,2.3789 -12.496,5.8359 -14.559,7.3203 -19.965,8.6445 -23.773,5.8203 z M 636.6,935.776 c 47.613,-7.7227 79.316,-28.066 95.758,-61.441 7.0078,-14.23 10.676,-27.18 14.477,-51.133 3.5938,-22.652 3.5391,-122.46 -0.0898,-160.21 -15.352,-159.73 -52.074,-248.5 -108.08,-261.23 -35.77,-8.1367 -74.117,7.9961 -102.62,43.168 -43.332,53.48 -72.387,171.94 -75.375,307.31 -1.1719,53.16 1.3828,81.293 9.7305,107.1 11.684,36.113 39.902,61.641 79.773,72.16 23.801,6.2812 62.316,8.1875 86.422,4.2773 z m -73.172,-651.94 c 7.3164,-5.7578 6.1406,-17.988 -2.1445,-22.273 -8.8164,-4.5586 -18.906,2.1289 -18.906,12.527 0,10.754 12.445,16.516 21.055,9.7461 z"
         id="path8059"
         style="fill:#ffffff;fill-opacity:1" /></g><flowRoot
       xml:space="preserve"
       id="flowRoot8642"
       style="font-style:normal;font-variant:normal;font-weight:normal;font-stretch:normal;font-size:40px;line-height:1.25;font-family:Raleway;-inkscape-font-specification:Raleway;letter-spacing:0px;word-spacing:0px;fill:#000000;fill-opacity:1;stroke:none"
       transform="translate(51.5,-13.900029)"><flowRegion
         id="flowRegion8644"><rect
           id="rect8646"
           width="430.63806"
           height="45.028694"
           x="25.37981"
           y="679.70172" /></flowRegion><flowPara
         id="flowPara8648"></flowPara></flowRoot><text
       xml:space="preserve"
       style="font-style:normal;font-variant:normal;font-weight:normal;font-stretch:normal;font-size:40px;line-height:0.75;font-family:Raleway;-inkscape-font-specification:Raleway;letter-spacing:0px;word-spacing:0px;fill:#000000;fill-opacity:1;stroke:none"
       x="1666.125"
       y="280.57336"
       id="text8733"
       inkscape:export-xdpi="41.972721"
       inkscape:export-ydpi="41.972721"><tspan
         sodipodi:role="line"
         x="1666.125"
         y="280.57336"
         style="font-style:normal;font-variant:normal;font-weight:bold;font-stretch:normal;font-size:192px;line-height:1;font-family:Raleway;-inkscape-font-specification:'Raleway Bold';text-align:center;text-anchor:middle;fill:#f82249;fill-opacity:1"
         id="tspan8737">State of the Map Europe</tspan></text>
</g></svg>